<?xml version="1.0" encoding="UTF-8"?>
<!DOCTYPE svg PUBLIC "-//W3C//DTD SVG 1.1//EN" "http://www.w3.org/Graphics/SVG/1.1/DTD/svg11.dtd">
<!-- Creator: CorelDRAW -->
<svg xmlns="http://www.w3.org/2000/svg" xml:space="preserve" width="1.70666in" height="1.70666in" version="1.1" style="shape-rendering:geometricPrecision; text-rendering:geometricPrecision; image-rendering:optimizeQuality; fill-rule:evenodd; clip-rule:evenodd"
viewBox="0 0 1707 1707"
 xmlns:xlink="http://www.w3.org/1999/xlink">
 <defs>
  <style type="text/css">
   <![CDATA[
    .fil0 {fill:black}
   ]]>
  </style>
 </defs>
 <g id="Layer_x0020_1">
  <metadata id="CorelCorpID_0Corel-Layer"/>
  <g id="_425588480">
   <g>
    <g>
     <g>
      <path class="fil0" d="M844 796c-174,0 -316,-141 -316,-316 0,-174 142,-316 316,-316 175,0 317,142 317,316 0,175 -142,316 -317,316zm0 -583c-147,0 -267,119 -267,267 0,149 119,268 267,268 149,0 268,-121 268,-268 0,-147 -121,-267 -268,-267z"/>
     </g>
     <g>
      <path class="fil0" d="M993 658c-7,0 -16,-4 -20,-10 -29,-40 -77,-65 -129,-65 -51,0 -98,23 -129,65 -8,11 -23,13 -33,6 -11,-9 -12,-24 -5,-34 40,-54 101,-84 167,-84 68,0 131,32 168,84 8,11 6,27 -5,34 -5,2 -10,4 -14,4z"/>
     </g>
     <g>
      <path class="fil0" d="M690 432c-5,0 -9,-2 -13,-6 -12,-8 -13,-23 -5,-34 14,-20 38,-31 61,-31 23,0 45,11 61,29 9,10 7,25 -2,35 -10,8 -25,7 -35,-3 -3,-4 -11,-12 -24,-12 -9,0 -18,5 -22,11 -7,7 -14,11 -21,11z"/>
     </g>
     <g>
      <path class="fil0" d="M998 432c-7,0 -15,-3 -19,-10 -6,-7 -14,-11 -22,-11 -13,0 -21,8 -24,12 -8,10 -23,11 -35,3 -11,-8 -11,-23 -2,-34 15,-20 37,-30 61,-30 22,0 45,13 61,31 8,11 5,26 -4,35 -6,2 -10,4 -16,4z"/>
     </g>
    </g>
    <g>
     <path class="fil0" d="M1391 1706l-1076 0c-53,0 -96,-43 -96,-95l0 -1514c0,-54 43,-97 96,-97l1076 0c54,0 97,43 97,97l0 1514c0,52 -43,95 -97,95zm-1076 -1657c-27,0 -48,22 -48,48l0 1514c0,26 21,47 48,47l1076 0c26,0 48,-21 48,-47l0 -1514c0,-26 -22,-48 -48,-48l-1076 0z"/>
    </g>
    <g>
     <path class="fil0" d="M1133 988l-577 0c-14,0 -25,-11 -25,-25 0,-14 11,-25 25,-25l575 0c14,0 25,11 25,25 0,14 -11,25 -23,25z"/>
    </g>
    <g>
     <path class="fil0" d="M1248 1172l-807 0c-14,0 -25,-11 -25,-25 0,-14 11,-25 25,-25l807 0c14,0 25,11 25,25 0,14 -11,25 -25,25z"/>
    </g>
    <g>
     <path class="fil0" d="M1248 1357l-807 0c-14,0 -25,-11 -25,-25 0,-14 11,-25 25,-25l807 0c14,0 25,11 25,25 0,14 -11,25 -25,25z"/>
    </g>
    <g>
     <path class="fil0" d="M1248 1541l-807 0c-14,0 -25,-11 -25,-25 0,-14 11,-25 25,-25l807 0c14,0 25,11 25,25 0,14 -11,25 -25,25z"/>
    </g>
   </g>
  </g>
 </g>
</svg>
