<?xml version="1.0" encoding="utf-8"?>
<!-- Generator: Adobe Illustrator 25.4.1, SVG Export Plug-In . SVG Version: 6.00 Build 0)  -->
<svg version="1.1" id="Layer_1" xmlns="http://www.w3.org/2000/svg" xmlns:xlink="http://www.w3.org/1999/xlink" x="0px" y="0px"
	 viewBox="0 0 64 64" style="enable-background:new 0 0 64 64;" xml:space="preserve">
<path d="M21.8691406,32.1621094c2.4985352,0,4.53125-2.0322266,4.53125-4.53125s-2.0327148-4.53125-4.53125-4.53125
	s-4.53125,2.0322266-4.53125,4.53125S19.3706055,32.1621094,21.8691406,32.1621094z M21.8691406,25.0996094
	c1.3955078,0,2.53125,1.1357422,2.53125,2.53125s-1.1357422,2.53125-2.53125,2.53125s-2.53125-1.1357422-2.53125-2.53125
	S20.4736328,25.0996094,21.8691406,25.0996094z"/>
<path d="M33.081543,23.15625h10.6000977c0.5522461,0,1-0.4472656,1-1s-0.4477539-1-1-1H33.081543c-0.5522461,0-1,0.4472656-1,1
	S32.5292969,23.15625,33.081543,23.15625z"/>
<path d="M33.081543,28.34375h10.6000977c0.5522461,0,1-0.4472656,1-1s-0.4477539-1-1-1H33.081543c-0.5522461,0-1,0.4472656-1,1
	S32.5292969,28.34375,33.081543,28.34375z"/>
<path d="M48.4262695,47.2579346V9.9697266c0-0.5527344-0.4477539-1-1-1h-5.7949219V5.28125c0-0.5527344-0.4477539-1-1-1
	s-1,0.4472656-1,1v3.6884766H34.081543V5.28125c0-0.5527344-0.4477539-1-1-1s-1,0.4472656-1,1v3.6884766H26.53125V5.28125
	c0-0.5527344-0.4477539-1-1-1s-1,0.4472656-1,1v3.6884766h-5.5498047V5.28125c0-0.5527344-0.4477539-1-1-1s-1,0.4472656-1,1
	v3.6884766H9.6762695c-0.5522461,0-1,0.4472656-1,1v49.0703125c0,0.5527344,0.4477539,1,1,1h36.7926025l1.2420654,1.6171875
	c0.1967773,0.2558594,0.4936523,0.390625,0.793457,0.390625c0.2128906,0,0.4272461-0.0673828,0.6083984-0.2070312
	l5.8198242-4.4697266c0.2104492-0.1611328,0.3481445-0.4003906,0.3828125-0.6630859
	c0.0341797-0.2626953-0.0371094-0.5283203-0.1987305-0.7392578L48.4262695,47.2579346z M10.6762695,58.0400391V10.9697266h6.3051758
	V14.65625c0,0.5527344,0.4477539,1,1,1s1-0.4472656,1-1v-3.6865234H24.53125V14.65625c0,0.5527344,0.4477539,1,1,1s1-0.4472656,1-1
	v-3.6865234h5.550293V14.65625c0,0.5527344,0.4477539,1,1,1s1-0.4472656,1-1v-3.6865234h5.5498047V14.65625
	c0,0.5527344,0.4477539,1,1,1s1-0.4472656,1-1v-3.6865234h4.7949219v34.5309448
	c-0.5787964-0.1856079-1.2063599-0.1789551-1.7940063,0.0137329l-1.8525391-2.4118652
	c0.8337402-1.2053223,1.3666382-2.6122437,1.5410767-4.1308594c0.2359009-2.0584717-0.2149658-4.1049805-1.2619629-5.8818359
	h0.6276855c0.5522461,0,1-0.4472656,1-1s-0.4477539-1-1-1h-2.1914673c-1.4309692-1.4081421-3.2487183-2.333374-5.2470093-2.6289062
	c-1.7940674-0.2629395-3.5686035,0.0016479-5.1513672,0.7418823v-9.1129761c0-0.5527344-0.4477539-1-1-1H13.6464844
	c-0.5522461,0-1,0.4472656-1,1v20.1298828c0,0.5527344,0.4477539,1,1,1h13.1094971
	c0.3048096,0.6920776,0.6864014,1.362793,1.168335,1.9902344c1.8754883,2.4414062,4.6904297,3.7314453,7.5039062,3.7314453
	c1.024231,0,2.0467529-0.1768188,3.0250244-0.5253296l1.8568726,2.4175415
	c-0.2344971,0.3591919-0.3965454,0.7631836-0.4541626,1.2005615c-0.1010742,0.7685547,0.1035156,1.5302734,0.5756836,2.1455078
	l4.5010986,5.8603516H10.6762695z M29.0966797,30.4974976c-1.1638794,0.9918213-2.013916,2.2277832-2.5350342,3.5860596
	c-0.65625-0.4981079-1.4645996-0.8052368-2.3502197-0.8052368h-4.6899414c-2.1503906,0-3.8999023,1.7539062-3.8999023,3.9101562
	v2.03125h-0.9750977V21.0898438h14.4501953V30.4974976z M17.621582,37.1884766c0-1.0537109,0.8520508-1.9101562,1.8999023-1.9101562
	h4.6899414c0.8121948,0,1.5029297,0.5115356,1.7786865,1.2278442c-0.0858765,0.8938599-0.0426025,1.8025513,0.1314697,2.6989136
	v0.0146484h-8.5V37.1884766z M28.121582,39.0001831v-1.8117065c0-0.2918701-0.0375977-0.5740967-0.0985107-0.8478394
	c0.2563477-1.7585449,1.1443481-3.4051514,2.6351318-4.5505981c1.2202148-0.9365234,2.6914062-1.4296875,4.2270508-1.4296875
	c0.3540039,0,0.7119141,0.0263672,1.0708008,0.0800781c1.9267578,0.2841797,3.6508789,1.3037109,4.8549805,2.8720703
	c1.2041016,1.5673828,1.7446289,3.4960938,1.5224609,5.4306641c-0.2207031,1.9228516-1.1689453,3.6171875-2.6704102,4.7705078
	c-3.1162109,2.3925781-7.6708984,1.7089844-10.152832-1.5224609C28.8070068,41.0757446,28.3527222,40.0513306,28.121582,39.0001831z
	 M40.8808594,45.0996094c0.1925049-0.1478882,0.3724365-0.3076172,0.5505981-0.46875l1.5075073,1.9628906l-1.1494141,0.8828125
	l-1.5040283-1.9584351C40.487793,45.3874512,40.6867065,45.2487183,40.8808594,45.0996094z M48.6879883,59.6455078
	l-6.6704102-8.6845703C41.7148438,50.5673828,41.7895508,50,42.184082,49.6972656l2.8022461-2.1533203
	c0.1635742-0.1259766,0.3569336-0.1865234,0.5488281-0.1865234c0.2709961,0,0.5390625,0.1210938,0.7163086,0.3525391
	l6.6699219,8.6845703L48.6879883,59.6455078z"/>
</svg>
