<?xml version="1.0" encoding="UTF-8" standalone="no"?> <svg width="64" height="64" viewBox="0 0 64 64" fill="none" xmlns="http://www.w3.org/2000/svg">
<path d="M34.3 32.3C33.9 32.7 33.9 33.3001 34.3 33.7001C34.7 34.1001 35.3 34.1001 35.7 33.7001C36.4 33.0001 37.6 33.0001 38.3 33.7001C38.5 33.9001 38.8 34 39 34C39.2 34 39.5 33.9001 39.7 33.7001C40.1 33.3001 40.1 32.7 39.7 32.3C38.2 30.8 35.8 30.8 34.3 32.3Z" fill="black"/>
<path d="M43.7 33.7001C44.4 33.0001 45.6 33.0001 46.3 33.7001C46.5 33.9001 46.8 34 47 34C47.2 34 47.5 33.9001 47.7 33.7001C48.1 33.3001 48.1 32.7 47.7 32.3C46.2 30.8 43.8 30.8 42.3 32.3C41.9 32.7 41.9 33.3001 42.3 33.7001C42.7 34.1001 43.3 34.1001 43.7 33.7001Z" fill="black"/>
<path d="M51 46H47V45.2C50 43.2 52 39.8 52 36V33.7C53.9 32 55 29.6 55 27C55 25.3 54.6 23.6 53.8 22.1C53.9 21.7 54 21.4 54 21V20.8C55.2 20.4 56 19.3 56 18C56 17 55.5 16.1 54.8 15.6C55.6 14.6 56 13.3 56 12C56 8.7 53.3 6 50 6C46.7 6 44 8.7 44 12C44 13.3 44.4 14.6 45.2 15.6C45 15.7 44.9 15.9 44.7 16C44.4 16 44.2 16 43.9 16H37.9C35.7 16 33.7 16.6 31.9 17.8V6C31.9 5.4 31.5 5 30.9 5H27.9V3C27.9 2.4 27.5 2 26.9 2H20.9C19.3 2 17.8 2.8 16.9 4C16 2.8 14.5 2 12.9 2H7C6.5 2 6 2.4 6 3V5H3C2.5 5 2 5.4 2 6V23C2 23.6 2.4 24 3 24H12.2C14 24 15.7 23.4 17 22.3C18.4 23.4 20.1 24 21.8 24H27.4C27.1 25 27 26 27 27C27 29.6 28.1 32 30 33.7V36C30 39.9 32 43.2 35 45.2V46H31C26 46 22 50 22 55V61C22 61.5 22.5 62 23 62H59C59.5 62 60 61.5 60 61V55C60 50 56 46 51 46ZM31 60H29V56C29 55.5 29.5 55 30 55C30.5 55 31 55.5 31 56V60ZM48.3 10.3C48.7 9.9 49.3 9.9 49.7 10.3L50 10.6L50.3 10.3C50.7 9.9 51.3 9.9 51.7 10.3C52.1 10.7 52.1 11.3 51.7 11.7L51 12.4V15H49V12.4L48.3 11.7C47.9 11.3 47.9 10.7 48.3 10.3ZM47 17H53C53.5 17 54 17.5 54 18C54 18.5 53.5 19 53 19H47C46.5 19 46 18.5 46 18C46 17.5 46.5 17 47 17ZM52 21C52 22.1 51.1 23 50 23C48.9 23 48 22.1 48 21H52ZM18 7C18 5.3 19.3 4 21 4H26V18H18V7ZM8 4H13C14.7 4 16 5.3 16 7V18H8V4ZM32 36V30C32 27.1 34.2 24.6 37.1 24.1L37.5 24C39.6 27.1 43.1 28.9 46.8 28.9H50V35.9C50 40.9 46 44.9 41 44.9C36 44.9 32 41 32 36ZM45 46.2V47.5L41 50.7L37 47.5V46.2C38.2 46.7 39.6 47 41 47C42.4 47 43.8 46.7 45 46.2ZM36.4 54.4L33.6 48H35C35 48.3 35.1 48.6 35.4 48.8L39.4 52L36.4 54.4ZM42 60H40V54.1L41 53.3L42 54.1V60ZM45.6 54.4L42.6 52L46.6 48.8C46.8 48.6 47 48.3 47 48H48.5L45.6 54.4ZM53 60H51V56C51 55.5 51.5 55 52 55C52.5 55 53 55.5 53 56V60Z" fill="black"/>
<path d="M21 8H23C23.6 8 24 7.6 24 7C24 6.4 23.6 6 23 6H21C20.4 6 20 6.4 20 7C20 7.6 20.5 8 21 8Z" fill="black"/>
<path d="M21 12H23C23.6 12 24 11.6 24 11C24 10.4 23.6 10 23 10H21C20.4 10 20 10.4 20 11C20 11.6 20.5 12 21 12Z" fill="black"/>
<path d="M21 16H23C23.6 16 24 15.6 24 15C24 14.4 23.6 14 23 14H21C20.4 14 20 14.4 20 15C20 15.6 20.5 16 21 16Z" fill="black"/>
<path d="M11 8H13C13.6 8 14 7.6 14 7C14 6.4 13.6 6 13 6H11C10.4 6 10 6.4 10 7C10 7.6 10.5 8 11 8Z" fill="black"/>
<path d="M11 12H13C13.6 12 14 11.6 14 11C14 10.4 13.6 10 13 10H11C10.4 10 10 10.4 10 11C10 11.6 10.5 12 11 12Z" fill="black"/>
<path d="M11 16H13C13.6 16 14 15.6 14 15C14 14.4 13.6 14 13 14H11C10.4 14 10 14.4 10 15C10 15.6 10.5 16 11 16Z" fill="black"/>
<path d="M41 13C41.5523 13 42 12.5523 42 12C42 11.4477 41.5523 11 41 11C40.4477 11 40 11.4477 40 12C40 12.5523 40.4477 13 41 13Z" fill="black"/>
<path d="M59 13C59.5523 13 60 12.5523 60 12C60 11.4477 59.5523 11 59 11C58.4477 11 58 11.4477 58 12C58 12.5523 58.4477 13 59 13Z" fill="black"/>
<path d="M50 4C50.5523 4 51 3.55228 51 3C51 2.44772 50.5523 2 50 2C49.4477 2 49 2.44772 49 3C49 3.55228 49.4477 4 50 4Z" fill="black"/>
<path d="M58.3 8.39999C58.8 8.09999 59 7.49999 58.7 6.99999C58.4 6.49999 57.8 6.39999 57.3 6.59999C56.8 6.89999 56.7 7.49999 56.9 7.99999C57.2 8.49999 57.8 8.59999 58.3 8.39999Z" fill="black"/>
<path d="M46 5.09994C46.5 4.79994 46.6 4.19994 46.4 3.69994C46.2 3.19994 45.5 3.09994 45 3.29994C44.5 3.49994 44.4 4.19994 44.6 4.69994C44.8 5.19994 45.5 5.29994 46 5.09994Z" fill="black"/>
<path d="M41.7 8.40006C42.2 8.70006 42.8 8.50006 43.1 8.00006C43.4 7.50006 43.2 6.90006 42.7 6.60006C42.2 6.30006 41.6 6.50006 41.3 7.00006C41.1 7.50006 41.2 8.10006 41.7 8.40006Z" fill="black"/>
<path d="M57.3 17.4001C57.8 17.7001 58.4 17.5001 58.7 17.0001C59 16.5001 58.8 15.9001 58.3 15.6001C57.8 15.3001 57.2 15.5001 56.9 16.0001C56.7 16.5001 56.8 17.1001 57.3 17.4001Z" fill="black"/>
<path d="M54 5.10001C54.5 5.40001 55.1 5.20001 55.4 4.70001C55.7 4.20001 55.5 3.60001 55 3.30001C54.5 3.00001 53.9 3.20001 53.6 3.70001C53.3 4.20001 53.5 4.80001 54 5.10001Z" fill="black"/>
<path d="M10 34C5.6 34 2 37.6 2 42C2 46.4 5.6 50 10 50C14.4 50 18 46.4 18 42C18 37.6 14.4 34 10 34ZM13.5 42.9L8.5 45.9C8.4 45.9 8.2 46 8 46C7.8 46 7.7 46 7.5 45.9C7.2 45.7 7 45.4 7 45V39C7 38.6 7.2 38.3 7.5 38.1C7.8 37.9 8.2 37.9 8.5 38.1L13.5 41.1C13.8 41.3 14 41.6 14 42C14 42.4 13.8 42.7 13.5 42.9Z" fill="black"/>
<path d="M10 31V27C10 26.4 9.6 26 9 26C8.4 26 8 26.4 8 27V31C8 31.6 8.4 32 9 32C9.6 32 10 31.5 10 31Z" fill="black"/>
<path d="M29 43C29 42.4 28.6 42 28 42H21C20.4 42 20 42.4 20 43C20 43.6 20.4 44 21 44H28C28.6 44 29 43.5 29 43Z" fill="black"/>
</svg>
